<?xml version="1.0" standalone="no"?>
<!DOCTYPE svg PUBLIC "-//W3C//DTD SVG 20010904//EN"
 "http://www.w3.org/TR/2001/REC-SVG-20010904/DTD/svg10.dtd">
<svg version="1.0" xmlns="http://www.w3.org/2000/svg"
 width="800.000000pt" height="800.000000pt" viewBox="0 0 800.000000 800.000000"
 preserveAspectRatio="xMidYMid meet">
<metadata>
Created by potrace 1.16, written by Peter Selinger 2001-2019
</metadata>
<g transform="translate(0.000000,800.000000) scale(0.100000,-0.100000)"
fill="#000000" stroke="none">
<path d="M1755 4702 c-80 -6 -118 -14 -106 -22 9 -5 1 -10 -21 -14 -18 -3 -50
-15 -70 -26 -38 -20 -93 -70 -78 -70 5 0 17 8 27 18 46 47 237 108 304 97 44
-8 213 4 204 14 -6 6 -200 9 -260 3z"/>
<path d="M2064 4661 c3 -5 26 -12 50 -15 24 -4 47 -13 49 -20 3 -7 17 -16 31
-18 21 -4 24 -3 15 8 -6 8 -18 14 -25 14 -8 0 -14 4 -14 8 0 10 -60 32 -89 32
-12 0 -20 -4 -17 -9z"/>
<path d="M2241 4578 c0 -15 57 -63 65 -55 9 8 -3 24 -36 47 -21 15 -30 17 -29
8z"/>
<path d="M1425 4540 c-3 -5 -1 -10 4 -10 6 0 11 5 11 10 0 6 -2 10 -4 10 -3 0
-8 -4 -11 -10z"/>
<path d="M2320 4515 c0 -18 19 -40 26 -32 4 4 0 15 -9 24 -9 10 -17 13 -17 8z"/>
<path d="M1335 4443 c-38 -52 -64 -103 -90 -180 -22 -65 -26 -96 -27 -203 -1
-74 3 -135 10 -150 9 -19 10 7 5 116 -6 140 -2 166 32 249 27 65 33 76 93 174
18 30 1 25 -23 -6z"/>
<path d="M2360 4463 c0 -5 9 -18 20 -28 11 -10 20 -23 20 -28 0 -6 11 -33 24
-61 59 -124 58 -119 58 -296 0 -182 4 -166 -78 -321 -29 -56 -31 -84 -4 -49
11 14 20 29 20 34 0 5 6 17 13 25 8 9 27 47 43 86 28 67 29 75 29 235 0 177 2
165 -65 315 -18 40 -80 108 -80 88z"/>
<path d="M1861 4414 c0 -11 3 -14 6 -6 3 7 2 16 -1 19 -3 4 -6 -2 -5 -13z"/>
<path d="M1890 4401 c0 -11 -4 -23 -10 -26 -5 -3 -10 -1 -10 4 0 6 -4 11 -10
11 -12 0 -14 -97 -2 -104 4 -2 13 -2 18 2 12 8 33 87 32 115 -2 23 -18 22 -18
-2z"/>
<path d="M1700 4380 c0 -5 5 -10 11 -10 5 0 7 5 4 10 -3 6 -8 10 -11 10 -2 0
-4 -4 -4 -10z"/>
<path d="M1733 4376 c3 -7 1 -18 -5 -24 -8 -8 -3 -28 17 -69 15 -32 28 -70 28
-85 0 -22 5 -28 23 -28 13 0 26 5 30 12 5 8 2 9 -9 5 -10 -3 -17 -2 -17 3 0 6
7 10 15 10 8 0 15 9 15 20 0 11 -6 20 -14 20 -15 0 -26 21 -26 47 0 22 -42
103 -53 103 -5 0 -7 -6 -4 -14z"/>
<path d="M1998 4383 c-22 -6 -32 -36 -31 -100 1 -45 -1 -53 -17 -53 -10 0 -22
-4 -25 -10 -3 -5 3 -10 14 -10 12 0 21 -4 21 -10 0 -5 -7 -10 -16 -10 -8 0
-12 -4 -9 -10 3 -5 15 -10 27 -10 16 0 19 5 14 23 -3 14 3 38 15 61 15 29 17
41 9 51 -15 17 -4 55 16 55 8 0 14 7 14 15 0 15 -2 16 -32 8z"/>
<path d="M2005 4341 c-6 -11 9 -23 19 -14 9 9 7 23 -3 23 -6 0 -12 -4 -16 -9z"/>
<path d="M1570 4300 c0 -5 14 -10 32 -10 36 0 35 4 -4 14 -17 4 -28 2 -28 -4z"/>
<path d="M2119 4303 c-9 -2 -22 -16 -30 -30 -8 -15 -28 -43 -46 -62 -33 -37
-37 -57 -5 -28 10 10 26 17 35 17 20 0 31 17 15 23 -19 7 21 35 42 30 13 -3
17 3 17 26 0 17 -3 30 -6 30 -3 -1 -13 -3 -22 -6z"/>
<path d="M1610 4261 c0 -5 9 -13 21 -16 11 -4 18 -9 15 -12 -11 -11 16 -33 40
-33 29 0 30 10 3 44 -20 25 -79 38 -79 17z"/>
<path d="M1854 4254 c3 -9 6 -25 6 -36 0 -14 6 -19 22 -16 29 4 34 25 9 33
-12 3 -21 13 -21 21 0 8 -5 14 -11 14 -6 0 -8 -7 -5 -16z"/>
<path d="M1535 4180 c-3 -5 -1 -10 4 -10 6 0 11 5 11 10 0 6 -2 10 -4 10 -3 0
-8 -4 -11 -10z"/>
<path d="M1730 4180 c0 -5 5 -10 10 -10 6 0 10 5 10 10 0 6 -4 10 -10 10 -5 0
-10 -4 -10 -10z"/>
<path d="M2205 4180 c-3 -5 1 -10 9 -10 9 0 16 5 16 10 0 6 -4 10 -9 10 -6 0
-13 -4 -16 -10z"/>
<path d="M2143 4165 c-18 -8 -33 -18 -33 -23 0 -6 -16 -17 -36 -27 -47 -22
-35 -33 13 -12 21 9 55 18 76 22 36 6 47 18 27 30 -6 4 -8 11 -5 16 8 12 -4
11 -42 -6z"/>
<path d="M1520 4150 c-35 -8 -16 -17 58 -25 53 -6 62 -5 62 9 0 9 -3 16 -7 17
-34 4 -92 4 -113 -1z"/>
<path d="M1733 4145 c-9 -25 4 -29 17 -6 7 15 7 21 0 21 -6 0 -13 -7 -17 -15z"/>
<path d="M2210 4140 c0 -5 5 -10 10 -10 6 0 10 5 10 10 0 6 -4 10 -10 10 -5 0
-10 -4 -10 -10z"/>
<path d="M1692 4112 c-7 -2 -10 -8 -6 -13 7 -12 51 -12 58 0 6 10 -33 20 -52
13z"/>
<path d="M1810 4102 c0 -5 14 -9 30 -9 17 0 30 4 30 9 0 4 -13 8 -30 8 -16 0
-30 -4 -30 -8z"/>
<path d="M1890 4100 c0 -5 5 -10 10 -10 6 0 10 5 10 10 0 6 -4 10 -10 10 -5 0
-10 -4 -10 -10z"/>
<path d="M2010 4100 c0 -5 5 -10 10 -10 6 0 10 5 10 10 0 6 -4 10 -10 10 -5 0
-10 -4 -10 -10z"/>
<path d="M1690 4061 c0 -6 5 -13 10 -16 6 -3 10 1 10 9 0 9 -4 16 -10 16 -5 0
-10 -4 -10 -9z"/>
<path d="M1810 4060 c0 -5 5 -10 10 -10 6 0 10 5 10 10 0 6 -4 10 -10 10 -5 0
-10 -4 -10 -10z"/>
<path d="M1930 4060 c0 -5 5 -10 10 -10 6 0 10 5 10 10 0 6 -4 10 -10 10 -5 0
-10 -4 -10 -10z"/>
<path d="M1530 4019 c0 -4 14 -12 30 -18 32 -11 150 4 150 19 0 4 -40 7 -90 7
-49 -1 -90 -4 -90 -8z"/>
<path d="M1810 4019 c0 -5 5 -7 10 -4 6 3 10 8 10 11 0 2 -4 4 -10 4 -5 0 -10
-5 -10 -11z"/>
<path d="M1930 4020 c0 -5 5 -10 10 -10 6 0 10 5 10 10 0 6 -4 10 -10 10 -5 0
-10 -4 -10 -10z"/>
<path d="M2050 4020 c0 -5 5 -10 10 -10 6 0 10 5 10 10 0 6 -4 10 -10 10 -5 0
-10 -4 -10 -10z"/>
<path d="M2091 4014 c12 -15 42 -17 102 -8 61 11 42 20 -39 22 -64 0 -73 -2
-63 -14z"/>
<path d="M1713 3990 c-31 -13 -29 -20 7 -20 20 0 30 5 30 15 0 17 -5 18 -37 5z"/>
<path d="M1850 3980 c0 -5 5 -10 10 -10 6 0 10 5 10 10 0 6 -4 10 -10 10 -5 0
-10 -4 -10 -10z"/>
<path d="M1890 3980 c0 -5 5 -10 10 -10 6 0 10 5 10 10 0 6 -4 10 -10 10 -5 0
-10 -4 -10 -10z"/>
<path d="M2010 3980 c0 -5 5 -10 10 -10 6 0 10 5 10 10 0 6 -4 10 -10 10 -5 0
-10 -4 -10 -10z"/>
<path d="M1644 3940 c-6 -6 -30 -16 -53 -23 -29 -8 -47 -20 -52 -35 -6 -16 -5
-22 6 -22 8 0 15 5 15 10 0 6 5 10 11 10 5 0 8 -4 4 -9 -11 -19 12 -19 43 -1
18 11 32 27 32 36 0 9 8 23 18 30 14 11 15 13 2 14 -9 0 -21 -5 -26 -10z"/>
<path d="M1690 3940 c0 -5 4 -10 9 -10 6 0 13 5 16 10 3 6 -1 10 -9 10 -9 0
-16 -4 -16 -10z"/>
<path d="M1730 3939 c0 -5 5 -7 10 -4 6 3 10 8 10 11 0 2 -4 4 -10 4 -5 0 -10
-5 -10 -11z"/>
<path d="M2015 3940 c3 -5 8 -10 11 -10 2 0 4 5 4 10 0 6 -5 10 -11 10 -5 0
-7 -4 -4 -10z"/>
<path d="M2050 3940 c0 -5 7 -10 15 -10 8 0 15 5 15 10 0 6 -7 10 -15 10 -8 0
-15 -4 -15 -10z"/>
<path d="M2100 3920 c-13 -8 -11 -13 12 -34 14 -14 38 -28 52 -32 23 -5 26 -3
26 20 0 20 -8 29 -36 41 -43 18 -36 17 -54 5z"/>
<path d="M1770 3900 c0 -5 5 -10 10 -10 6 0 10 5 10 10 0 6 -4 10 -10 10 -5 0
-10 -4 -10 -10z"/>
<path d="M1810 3900 c0 -5 5 -10 10 -10 6 0 10 5 10 10 0 6 -4 10 -10 10 -5 0
-10 -4 -10 -10z"/>
<path d="M1930 3900 c0 -5 5 -10 10 -10 6 0 10 5 10 10 0 6 -4 10 -10 10 -5 0
-10 -4 -10 -10z"/>
<path d="M1970 3900 c0 -5 5 -10 10 -10 6 0 10 5 10 10 0 6 -4 10 -10 10 -5 0
-10 -4 -10 -10z"/>
<path d="M1817 3873 c-2 -5 -8 -26 -12 -48 -4 -22 -10 -44 -15 -50 -12 -14
-22 -85 -12 -85 4 0 13 5 20 12 9 9 12 9 12 0 0 -7 4 -12 9 -12 5 0 9 43 8 95
0 93 -1 103 -10 88z"/>
<path d="M1730 3854 c0 -8 5 -12 10 -9 6 3 10 10 10 16 0 5 -4 9 -10 9 -5 0
-10 -7 -10 -16z"/>
<path d="M2014 3839 c5 -41 37 -99 56 -99 12 0 12 2 1 9 -10 6 -7 11 14 18
l27 9 -42 47 c-23 26 -46 47 -51 47 -5 0 -7 -14 -5 -31z"/>
<path d="M1251 3845 c0 -6 7 -26 15 -45 l14 -35 -5 35 c-5 30 -26 70 -24 45z"/>
<path d="M1670 3805 c-25 -26 -21 -47 5 -25 13 10 15 9 15 -9 0 -12 5 -19 10
-16 12 7 14 75 2 75 -5 0 -19 -11 -32 -25z"/>
<path d="M1936 3804 c-3 -11 -5 -40 -4 -67 2 -41 5 -47 24 -47 30 0 35 10 19
34 -8 11 -15 32 -15 46 0 14 -4 31 -9 39 -7 11 -10 10 -15 -5z"/>
<path d="M1290 3746 c0 -8 4 -17 9 -20 5 -4 7 3 4 14 -6 23 -13 26 -13 6z"/>
<path d="M2090 3739 c0 -5 5 -7 10 -4 6 3 10 8 10 11 0 2 -4 4 -10 4 -5 0 -10
-5 -10 -11z"/>
<path d="M2335 3629 c-11 -17 1 -21 15 -4 8 9 8 15 2 15 -6 0 -14 -5 -17 -11z"/>
<path d="M2290 3579 c0 -5 5 -7 10 -4 6 3 10 8 10 11 0 2 -4 4 -10 4 -5 0 -10
-5 -10 -11z"/>
<path d="M1514 3505 c11 -8 27 -15 35 -15 10 1 7 6 -9 15 -33 19 -50 18 -26 0z"/>
<path d="M2184 3505 c-16 -12 -16 -14 -3 -15 9 0 22 7 29 15 16 19 0 19 -26 0z"/>
<path d="M1574 3473 c25 -25 176 -63 251 -62 87 0 205 10 205 18 0 3 -75 6
-168 6 -148 1 -173 3 -222 23 -56 22 -79 28 -66 15z"/>
<path d="M2108 3468 c-16 -5 -28 -13 -28 -17 0 -13 48 0 61 15 13 16 5 17 -33
2z"/>
</g>
</svg>
